<svg width="234" height="64" viewBox="0 0 234 64" xmlns="http://www.w3.org/2000/svg" fill="white">
  <g clip-path="url(#clip0_486_4286)">
    <path d="M61.1052 28.1428H78.3252V63.5711H90.9363V28.1428H108.48V16.8086H61.1052V28.1428Z"></path>
    <path d="M168.562 16.7129H166.874H159.545L146.917 47.5585L134.288 16.7129H126.968H121.904H112.547V63.5716H125.271V25.266L140.358 63.5716H153.476L168.562 25.266V63.5716H181.287V16.7129H171.929H168.562Z"></path>
    <path d="M57.0299 16.7129H44.3051V63.5716H57.0299V16.7129Z"></path>
    <path d="M0 16.7129V63.5716H12.7248V16.7129H0Z"></path>
    <path d="M31.9124 16.7129L12.7246 63.5716H25.8429L44.2961 16.7129H39.2324H31.9124Z"></path>
    <path d="M50.6627 0.000301339C49.4328 0.0244222 48.2375 0.411267 47.2267 1.11229C46.2158 1.8133 45.4346 2.79727 44.9809 3.94069C44.5273 5.08411 44.4215 6.33603 44.6768 7.53937C44.9321 8.7427 45.5371 9.84384 46.4159 10.7046C47.2948 11.5653 48.4083 12.1473 49.6167 12.3774C50.8251 12.6076 52.0745 12.4758 53.2082 11.9985C54.342 11.5211 55.3095 10.7195 55.9893 9.69435C56.6691 8.66915 57.031 7.46601 57.0295 6.23589C57.011 4.56505 56.3301 2.96985 55.1364 1.80068C53.9426 0.631513 52.3336 -0.0160233 50.6627 0.000301339Z"></path>
    <path d="M221.167 40.5624C221 47.7687 216.173 52.605 209.168 52.605H208.905C205.136 52.535 202.031 51.3194 199.924 49.1068C197.816 46.8942 196.731 43.6233 196.801 39.7403C196.719 38.1219 196.982 36.5045 197.571 34.995C198.161 33.4856 199.064 32.1186 200.222 30.9843C201.379 29.8501 202.764 28.9745 204.285 28.4155C205.806 27.8564 207.429 27.6267 209.045 27.7414C210.657 27.6846 212.263 27.9561 213.767 28.5394C215.27 29.1227 216.639 30.0057 217.791 31.1347C218.956 32.4048 219.855 33.896 220.433 35.52C221.012 37.144 221.258 38.8676 221.158 40.5886L221.167 40.5624ZM222.155 19.7567C218.26 17.5059 213.832 16.3402 209.334 16.3809C208.165 16.3837 206.997 16.4509 205.836 16.582C199.005 17.3342 193.513 20.1852 189.508 25.0565C185.747 29.6304 184.12 35.2101 184.54 42.0929C184.697 46.8594 186.401 51.4454 189.394 55.1587C194.204 61.0357 200.763 63.843 210.13 63.9917H210.235H210.339L211.555 63.8343C213.188 63.6521 214.807 63.3599 216.4 62.9597C221.178 61.7661 225.446 59.068 228.574 55.2637C231.617 51.4271 233.335 46.708 233.471 41.813C233.882 31.7818 230.078 24.3219 222.163 19.7567"></path>
  </g>
  <defs>
    <clipPath id="clip0_486_4286">
      <rect width="233.506" height="64"></rect>
    </clipPath>
  </defs>
</svg>